<?xml version="1.0" encoding="UTF-8" standalone="no"?>
<svg
   xmlns:dc="http://purl.org/dc/elements/1.1/"
   xmlns:cc="http://creativecommons.org/ns#"
   xmlns:rdf="http://www.w3.org/1999/02/22-rdf-syntax-ns#"
   xmlns:svg="http://www.w3.org/2000/svg"
   xmlns="http://www.w3.org/2000/svg"
   xmlns:xlink="http://www.w3.org/1999/xlink"
   xmlns:sodipodi="http://sodipodi.sourceforge.net/DTD/sodipodi-0.dtd"
   xmlns:inkscape="http://www.inkscape.org/namespaces/inkscape"
   inkscape:export-ydpi="26.219999"
   inkscape:export-xdpi="26.219999"
   inkscape:export-filename="C:\Users\Tesse\Desktop\AnkiPause\icons\icon128.png"
   sodipodi:docname="icon.svg"
   inkscape:version="1.0 (4035a4fb49, 2020-05-01)"
   id="svg8"
   version="1.1"
   viewBox="0 0 124 124"
   height="124mm"
   width="124mm">
  <defs
     id="defs2">
    <linearGradient
       id="linearGradient1172"
       inkscape:collect="always">
      <stop
         id="stop1168"
         offset="0"
         style="stop-color:#0084dd;stop-opacity:1" />
      <stop
         style="stop-color:#00ccff;stop-opacity:1"
         offset="0.74831897"
         id="stop1176" />
      <stop
         id="stop1170"
         offset="1"
         style="stop-color:#ffffff;stop-opacity:1" />
    </linearGradient>
    <inkscape:perspective
       sodipodi:type="inkscape:persp3d"
       inkscape:vp_x="0 : -157.00001 : 1"
       inkscape:vp_y="0 : 1000 : 0"
       inkscape:vp_z="32.000001 : -157.00001 : 1"
       inkscape:persp3d-origin="16.000001 : -162.33334 : 1"
       id="perspective125" />
    <linearGradient
       id="linearGradient3769"
       inkscape:collect="always">
      <stop
         id="stop3771"
         offset="0"
         style="stop-color:#3c3c3c;stop-opacity:1" />
      <stop
         id="stop3773"
         offset="1"
         style="stop-color:#9e9e9e;stop-opacity:1" />
    </linearGradient>
    <linearGradient
       id="linearGradient4843">
      <stop
         style="stop-color:white;stop-opacity:0.49411765;"
         offset="0"
         id="stop4845" />
      <stop
         style="stop-color:white;stop-opacity:0.25098041;"
         offset="1"
         id="stop4847" />
    </linearGradient>
    <linearGradient
       id="linearGradient4825">
      <stop
         id="stop4827"
         offset="0"
         style="stop-color:#0084dd;stop-opacity:1" />
      <stop
         id="stop4829"
         offset="1"
         style="stop-color:white;stop-opacity:1" />
    </linearGradient>
    <linearGradient
       inkscape:collect="always"
       xlink:href="#linearGradient3769"
       id="linearGradient4926"
       gradientUnits="userSpaceOnUse"
       gradientTransform="matrix(0.954545,0,0,0.965517,1.704545,0.551724)"
       x1="15.5"
       y1="5.9497476"
       x2="4"
       y2="31" />
    <clipPath
       clipPathUnits="userSpaceOnUse"
       id="clipPath2815">
      <rect
         style="opacity:1;fill:#d533e4;fill-opacity:0.540984;stroke:none;stroke-width:1;stroke-miterlimit:4;stroke-dasharray:none;stroke-opacity:1"
         id="rect1913"
         width="23"
         height="30"
         x="5"
         y="1"
         ry="4.6187186"
         rx="4.6187186" />
    </clipPath>
    <clipPath
       clipPathUnits="userSpaceOnUse"
       id="clipPath2868">
      <rect
         style="opacity:1;fill:none;fill-opacity:1;stroke:#000000;stroke-width:1;stroke-miterlimit:4;stroke-dasharray:none;stroke-opacity:1"
         id="rect1950"
         width="41"
         height="28"
         x="19.880381"
         y="16.849239"
         ry="4"
         rx="4" />
    </clipPath>
    <clipPath
       clipPathUnits="userSpaceOnUse"
       id="clipPath4004">
      <rect
         rx="4.6187186"
         ry="4.6187186"
         y="1"
         x="5"
         height="30"
         width="45"
         id="rect4000"
         style="opacity:1;fill:#d533e4;fill-opacity:0.540984;stroke:none;stroke-width:1;stroke-miterlimit:4;stroke-dasharray:none;stroke-opacity:1" />
    </clipPath>
    <clipPath
       clipPathUnits="userSpaceOnUse"
       id="clipPath4011">
      <rect
         rx="4"
         ry="4"
         y="16.849239"
         x="19.880381"
         height="28"
         width="43"
         id="rect4002"
         style="opacity:1;fill:#e51be8;fill-opacity:0.535519;stroke:none;stroke-width:1;stroke-miterlimit:4;stroke-dasharray:none;stroke-opacity:1" />
    </clipPath>
    <linearGradient
       y2="542.33295"
       x2="188.00023"
       y1="412.82977"
       x1="253.74718"
       gradientUnits="userSpaceOnUse"
       id="linearGradient1041"
       xlink:href="#linearGradient4825"
       inkscape:collect="always" />
    <linearGradient
       y2="542.33295"
       x2="188.00023"
       y1="412.82977"
       x1="253.74718"
       gradientUnits="userSpaceOnUse"
       id="linearGradient1043"
       xlink:href="#linearGradient4825"
       inkscape:collect="always" />
    <linearGradient
       y2="282.36218"
       x2="292"
       y1="441.86218"
       x1="247"
       gradientTransform="matrix(0.09240924,0,0,0.09240924,-5.65772,-25.6423)"
       gradientUnits="userSpaceOnUse"
       id="linearGradient1045"
       xlink:href="#linearGradient4843"
       inkscape:collect="always" />
    <linearGradient
       gradientTransform="translate(4,-2)"
       gradientUnits="userSpaceOnUse"
       y2="173.97391"
       x2="125.92571"
       y1="351.72583"
       x1="123.38641"
       id="linearGradient1174"
       xlink:href="#linearGradient1172"
       inkscape:collect="always" />
  </defs>
  <sodipodi:namedview
     inkscape:window-maximized="1"
     inkscape:window-y="-9"
     inkscape:window-x="-9"
     inkscape:window-height="1013"
     inkscape:window-width="1920"
     fit-margin-bottom="0"
     fit-margin-right="6"
     fit-margin-left="12"
     fit-margin-top="5"
     showgrid="false"
     inkscape:document-rotation="0"
     inkscape:current-layer="layer1-9"
     inkscape:document-units="mm"
     inkscape:cy="-1344.0511"
     inkscape:cx="828.7768"
     inkscape:zoom="0.095374899"
     inkscape:pageshadow="2"
     inkscape:pageopacity="0.0"
     borderopacity="1.0"
     bordercolor="#666666"
     pagecolor="#ffffff"
     id="base" />
  <metadata
     id="metadata5">
    <rdf:RDF>
      <cc:Work
         rdf:about="">
        <dc:format>image/svg+xml</dc:format>
        <dc:type
           rdf:resource="http://purl.org/dc/dcmitype/StillImage" />
        <dc:title></dc:title>
      </cc:Work>
    </rdf:RDF>
  </metadata>
  <g
     transform="translate(-21.398714,-35.997999)"
     id="layer1"
     inkscape:groupmode="layer"
     inkscape:label="Layer 1">
    <g
       transform="matrix(0.26458333,0,0,0.26458333,72.836016,59.115476)"
       id="g1039">
      <g
         inkscape:label="Layer 1"
         id="layer1-9"
         style="display:inline">
        <g
           transform="matrix(13.384764,0,0,13.384764,-211.97819,-83.860267)"
           id="g2807"
           clip-path="url(#clipPath2815)">
          <rect
             ry="0"
             rx="0"
             y="0"
             x="0"
             height="32"
             width="32"
             id="rect2802"
             style="display:inline;opacity:1;fill:#000000;fill-opacity:1;stroke:none;stroke-width:1.2;stroke-miterlimit:4;stroke-dasharray:none;stroke-opacity:1" />
          <rect
             style="opacity:1;fill:url(#linearGradient4926);fill-opacity:1;stroke:none;stroke-width:1;stroke-miterlimit:4;stroke-dasharray:none;stroke-opacity:1"
             id="rect4875"
             width="21"
             height="28"
             x="6"
             y="2"
             ry="4"
             rx="4" />
          <path
             transform="matrix(0.09169279,0.01148462,-0.01148462,0.09169279,1.24989,-28.62005)"
             d="m 312.50679,544.32837 c -20.28396,20.1643 -45.83498,-32.08006 -74.19864,-28.40036 -29.32333,3.80421 -41.202,60.28859 -67.50841,46.78663 -25.44547,-13.06007 16.34617,-53.50493 4.08171,-79.34329 -12.67942,-26.71258 -70.06997,-20.55523 -65.35797,-49.74645 4.55778,-28.23586 55.93746,-0.9878 76.72126,-20.63649 21.48703,-20.31349 -2.10362,-72.99241 27.11497,-77.53162 28.26233,-4.39065 18.22508,52.89443 43.33464,66.58923 25.95913,14.15816 68.76986,-24.55656 82.11594,1.82928 12.9093,25.52229 -44.67374,33.67836 -49.93898,61.7909 -5.4434,29.06371 44.60573,57.81562 23.63548,78.66217 z"
             inkscape:randomized="0"
             inkscape:rounded="0.36"
             inkscape:flatsided="false"
             sodipodi:arg2="1.4167054"
             sodipodi:arg1="0.81345017"
             sodipodi:r2="60.646587"
             sodipodi:r1="121.55363"
             sodipodi:cy="456"
             sodipodi:cx="229"
             sodipodi:sides="5"
             id="path4877"
             style="fill:none;fill-opacity:1;stroke:none;stroke-width:16.2321;stroke-miterlimit:4;stroke-dasharray:none;stroke-opacity:1"
             sodipodi:type="star" />
          <path
             sodipodi:type="star"
             style="fill:url(#linearGradient1041);fill-opacity:1;stroke:#ffffff;stroke-width:15.9837;stroke-miterlimit:4;stroke-dasharray:none;stroke-opacity:1"
             id="path4879"
             sodipodi:sides="5"
             sodipodi:cx="229"
             sodipodi:cy="456"
             sodipodi:r1="94"
             sodipodi:r2="52"
             sodipodi:arg1="0.80032243"
             sodipodi:arg2="1.428641"
             inkscape:flatsided="false"
             inkscape:rounded="0.21"
             inkscape:randomized="0"
             d="m 294.46869,523.45259 c -9.08043,8.81335 -45.57491,-17.76993 -58.10148,-15.97712 -12.52658,1.79282 -40.09949,37.54547 -51.28749,31.63294 -11.18801,-5.91252 2.81678,-48.83551 -2.75921,-60.19499 -5.57599,-11.35947 -48.09928,-26.53469 -45.93342,-39.00218 2.16586,-12.46749 47.31577,-12.41208 56.39619,-21.22544 9.08043,-8.81335 10.3725,-53.9448 22.89908,-55.73762 12.52657,-1.79281 26.42597,41.16443 37.61397,47.07695 11.188,5.91252 54.50984,-6.80503 60.08583,4.55445 5.57599,11.35947 -30.98363,37.85309 -33.14948,50.32059 -2.16586,12.46749 23.31643,49.73906 14.23601,58.55242 z"
             transform="matrix(0.07507522,4.398431e-4,-4.398431e-4,0.07507522,-2.36792,-12.92398)" />
          <path
             transform="matrix(0.03131375,-0.02522366,0.02522366,0.03131375,2.32085,0.206819)"
             d="m 294.46869,523.45259 c -9.08043,8.81335 -45.57491,-17.76993 -58.10148,-15.97712 -12.52658,1.79282 -40.09949,37.54547 -51.28749,31.63294 -11.18801,-5.91252 2.81678,-48.83551 -2.75921,-60.19499 -5.57599,-11.35947 -48.09928,-26.53469 -45.93342,-39.00218 2.16586,-12.46749 47.31577,-12.41208 56.39619,-21.22544 9.08043,-8.81335 10.3725,-53.9448 22.89908,-55.73762 12.52657,-1.79281 26.42597,41.16443 37.61397,47.07695 11.188,5.91252 54.50984,-6.80503 60.08583,4.55445 5.57599,11.35947 -30.98363,37.85309 -33.14948,50.32059 -2.16586,12.46749 23.31643,49.73906 14.23601,58.55242 z"
             inkscape:randomized="0"
             inkscape:rounded="0.21"
             inkscape:flatsided="false"
             sodipodi:arg2="1.428641"
             sodipodi:arg1="0.80032243"
             sodipodi:r2="52"
             sodipodi:r1="94"
             sodipodi:cy="456"
             sodipodi:cx="229"
             sodipodi:sides="5"
             id="path4889"
             style="fill:url(#linearGradient1043);fill-opacity:1;stroke:#ffffff;stroke-width:24.8699;stroke-miterlimit:4;stroke-dasharray:none;stroke-opacity:1"
             sodipodi:type="star" />
          <path
             style="display:inline;opacity:1;fill:url(#linearGradient1045);fill-opacity:1;stroke:none;stroke-width:3;stroke-miterlimit:4;stroke-opacity:1"
             d="M 2.659112,0.45056835 H 30.289475 L 29.457792,20.39883 C 25.879683,16.517642 12.825421,10.535309 3.6153,10.535309 Z"
             id="path4881"
             sodipodi:nodetypes="ccccc" />
        </g>
        <path
           d="m 214.89062,67.666016 c -51.4445,0.04313 -102.88906,-0.0024 -154.333587,0.0306 -6.61514,0.02135 -13.233055,-0.03109 -19.84647,0.03619 -5.928568,0.435735 -11.171686,4.432415 -13.996297,9.538612 -3.08794,5.32329 -3.764054,11.759056 -2.752663,17.758563 2.921654,25.446169 12.070337,50.355289 27.448717,70.933759 7.480975,10.06048 16.576829,18.90267 26.795586,26.16146 1.90641,1.43674 3.886202,2.93945 5.662138,4.37789 1.018258,0.81304 1.928261,1.57247 2.956124,2.44717 4.148141,3.61038 8.157269,7.52725 11.015676,12.26654 1.632186,2.81599 2.875736,6.13711 2.134251,9.42457 -0.666714,2.98014 -2.372591,5.61014 -4.17954,8.0253 -1.264375,1.65651 -2.681228,3.18817 -4.130493,4.68294 -0.292425,0.28379 -0.849039,0.84899 -1.242587,1.2405 -9.149974,8.8257 -20.154127,15.52686 -28.87857,24.82109 -16.520397,17.05827 -27.783599,38.80757 -33.676434,61.72143 -2.210362,8.69401 -3.809318,17.57289 -4.34492,26.53455 -0.0496,7.17264 3.072098,14.54852 8.956965,18.82891 3.394947,2.50357 7.743101,3.38194 11.896093,3.08789 57.291761,-0.005 114.583831,0.0152 171.875391,-0.0312 6.77541,-0.33239 12.84788,-5.08721 15.50585,-11.21756 2.16135,-4.62518 2.40849,-9.91708 1.5885,-14.89482 -2.73042,-25.51924 -11.70968,-50.54316 -26.95237,-71.28559 -7.53545,-10.32355 -16.7631,-19.39053 -27.15121,-26.83059 -6.37199,-4.8668 -12.79496,-9.91567 -17.55587,-16.44708 -2.39228,-3.26867 -4.44568,-7.1995 -4.03686,-11.37269 0.60382,-4.52509 3.39523,-8.3564 6.28606,-11.73444 5.7645,-6.5763 12.82385,-11.81437 19.63475,-17.18514 6.76342,-5.11237 12.98448,-10.94272 18.46241,-17.41611 13.24275,-15.57816 22.42206,-34.38915 27.64099,-54.10169 2.28018,-8.6679 3.84347,-17.53447 4.55709,-26.470404 0.35649,-7.336507 -2.63345,-14.982754 -8.52426,-19.530206 -3.07344,-2.330725 -6.96057,-3.552318 -10.81446,-3.40039 z"
           style="stroke:#ffffff;stroke-width:16.1159;stroke-miterlimit:4;stroke-dasharray:none;stroke-opacity:1"
           id="path1158" />
        <path
           d="m 217.3418,79.65625 c -14.96975,0.08054 -29.94043,0.01016 -44.91055,0.03183 -42.94453,-0.0071 -85.889063,-0.0016 -128.833594,0.0053 -2.47706,0.409676 -4.178192,2.567887 -5.07007,4.77348 -1.527869,3.355475 -0.94452,7.126696 -0.46664,10.644667 2.863893,22.958933 11.225364,45.407613 25.175834,63.956503 5.761708,7.65977 12.505848,14.58881 20.113648,20.42736 5.225161,3.9511 10.56318,7.77908 15.400083,12.21226 4.582909,4.21643 8.910879,8.85593 11.948599,14.33238 2.77881,5.04301 4.29944,11.01588 3.08605,16.74124 -1.36766,6.69616 -5.45883,12.44561 -10.02994,17.36934 -7.361395,7.96583 -16.357603,14.12152 -24.639208,21.04987 -14.584383,12.5234 -25.452569,29.02344 -32.440512,46.85438 -4.922,12.59185 -8.027312,25.90148 -9.139946,39.3756 -0.09919,3.63305 1.288707,7.55644 4.409209,9.62924 1.981695,0.90785 4.190943,0.39159 6.285315,0.52423 56.484502,-0.005 112.969012,-0.009 169.453512,-0.0136 2.80185,-0.32886 4.82879,-2.78268 5.60073,-5.35687 1.04913,-3.33785 0.10329,-6.82699 -0.18484,-10.2048 -2.95869,-23.40864 -11.60988,-46.29627 -26.09635,-65.027 -6.21923,-8.06346 -13.57806,-15.24852 -21.84014,-21.20611 -8.07177,-6.07811 -16.14072,-12.50873 -21.94308,-20.89387 -3.60053,-5.23322 -6.10412,-11.54561 -5.57206,-17.98961 0.53653,-6.55658 3.8912,-12.51664 7.99326,-17.51703 6.44501,-7.93219 14.71719,-14.05643 22.67436,-20.36283 5.20803,-3.95449 10.10032,-8.33271 14.4662,-13.20641 12.77054,-14.1527 21.63848,-31.5668 26.7581,-49.86518 2.34823,-8.50125 3.99909,-17.21267 4.70776,-26.007386 0.10921,-3.579437 -1.17374,-7.479471 -4.22451,-9.575444 -0.80269,-0.481894 -1.74669,-0.720254 -2.68122,-0.701519 z"
           style="fill:url(#linearGradient1174);fill-opacity:1;stroke:#515151;stroke-width:16.1159;stroke-miterlimit:4;stroke-dasharray:none;stroke-opacity:1"
           id="path1132" />
      </g>
      <g
         id="layer4"
         inkscape:label="Guillotine"
         style="display:none">
        <rect
           style="fill:#0000ff;fill-opacity:0.75;fill-rule:evenodd;stroke:none;stroke-width:1px;stroke-linecap:butt;stroke-linejoin:miter;stroke-opacity:1"
           id="rect3342"
           width="23.010735"
           height="15.340489"
           x="36.972717"
           y="40.374142"
           inkscape:export-filename="/home/alex/Projects/phatcore/portfolio/images/thumbs/Anki_Main.png"
           inkscape:export-xdpi="1038.48"
           inkscape:export-ydpi="1038.48" />
      </g>
    </g>
  </g>
</svg>
